<svg width="30" height="30" viewBox="0 0 30 30" fill="none" xmlns="http://www.w3.org/2000/svg">
<path d="M1 1H24.52C25.7082 1 26.8477 1.472 27.6878 2.31216C28.528 3.15232 29 4.29183 29 5.48V24.52C29 25.7082 28.528 26.8477 27.6878 27.6878C26.8477 28.528 25.7082 29 24.52 29H5.48C4.29183 29 3.15232 28.528 2.31216 27.6878C1.472 26.8477 1 25.7082 1 24.52L1 1Z" fill="#663399"/>
<path d="M8.08398 23.876V19.172C8.08398 17.296 9.28798 16.288 11.108 16.288C12.9 16.26 14.02 17.436 13.964 19.424H11.892C11.948 18.668 11.612 18.108 11.052 18.136C10.352 18.136 10.156 18.612 10.156 19.508V23.596C10.156 24.464 10.436 24.884 11.052 24.912C11.696 24.912 11.948 24.268 11.892 23.54H13.964C14.076 25.584 12.788 26.788 10.968 26.76C9.20398 26.76 8.08398 25.78 8.08398 23.876ZM14.72 23.54H16.652C16.68 24.436 16.96 24.996 17.576 24.996C18.192 24.996 18.416 24.632 18.416 23.792C18.416 23.092 18.108 22.7 17.352 22.336L16.624 22C15.336 21.384 14.804 20.628 14.804 19.116C14.804 17.436 15.868 16.26 17.604 16.26C19.34 16.26 20.264 17.464 20.292 19.424H18.416C18.416 18.612 18.248 18.052 17.632 18.052C17.072 18.052 16.792 18.332 16.792 19.032C16.792 19.732 17.044 20.012 17.716 20.292L18.388 20.6C19.816 21.272 20.432 22.14 20.432 23.764C20.432 25.696 19.34 26.76 17.548 26.76C15.756 26.76 14.748 25.528 14.72 23.54ZM21.048 23.54H23.008C23.008 24.436 23.316 24.996 23.904 24.996C24.492 24.996 24.744 24.632 24.744 23.792C24.744 23.092 24.464 22.7 23.68 22.336L22.952 22C21.664 21.384 21.16 20.628 21.16 19.116C21.16 17.436 22.196 16.26 23.96 16.26C25.724 16.26 26.592 17.464 26.648 19.424H24.772C24.744 18.612 24.576 18.052 23.96 18.052C23.4 18.052 23.148 18.332 23.148 19.032C23.148 19.732 23.372 20.012 24.044 20.292L24.744 20.6C26.144 21.272 26.76 22.14 26.76 23.764C26.76 25.696 25.668 26.76 23.876 26.76C22.084 26.76 21.076 25.528 21.048 23.54Z" fill="white"/>
</svg>
