<svg width="30" height="30" viewBox="0 0 30 30" fill="none" xmlns="http://www.w3.org/2000/svg">
<path d="M17.196 15.7933C16.732 15.7997 17.2838 16.0323 17.8895 16.1255C18.0568 15.9949 18.2086 15.8627 18.3439 15.7341C17.9667 15.8266 17.5828 15.8286 17.196 15.7933Z" fill="#A80030"/>
<path d="M19.6862 15.1726C19.9625 14.7913 20.1639 14.3738 20.2349 13.9421C20.1729 14.2498 20.0058 14.5155 19.8486 14.7959C18.9814 15.342 19.767 14.4716 19.8481 14.1409C18.9155 15.3146 19.72 14.8447 19.6862 15.1726Z" fill="#A80030"/>
<path d="M20.6054 12.7808C20.6614 11.9453 20.4409 12.2094 20.3668 12.5283C20.4533 12.5732 20.5217 13.1172 20.6054 12.7808Z" fill="#A80030"/>
<path d="M15.4367 1.36121C15.6843 1.40561 15.9717 1.43969 15.9314 1.49882C16.2023 1.43944 16.2637 1.3847 15.4367 1.36121Z" fill="#A80030"/>
<path d="M15.9314 1.49884L15.7563 1.53499L15.9193 1.52053L15.9314 1.49884Z" fill="#A80030"/>
<path d="M23.6522 13.0976C23.6798 13.8479 23.4328 14.2119 23.2099 14.8563L22.809 15.0567C22.4808 15.6939 22.8407 15.4613 22.6058 15.9681C22.0935 16.4235 21.0512 17.3933 20.7177 17.4818C20.4742 17.4764 20.8827 17.1945 20.9361 17.084C20.2504 17.5549 20.3859 17.7909 19.3372 18.0769L19.3064 18.0088C16.7199 19.2256 13.127 16.8141 13.1743 13.5238C13.1466 13.7327 13.0958 13.6805 13.0384 13.765C12.905 12.0721 13.8202 10.3716 15.3639 9.67738C16.8738 8.92993 18.6439 9.23665 19.7255 10.2446C19.1314 9.46644 17.9489 8.64153 16.5475 8.71873C15.1747 8.74042 13.8905 9.61283 13.4619 10.5599C12.7586 11.0026 12.677 12.2667 12.3705 12.4981C11.9582 15.5284 13.1461 16.8376 15.1556 18.3777C15.4719 18.591 15.2446 18.6233 15.2875 18.7857C14.6198 18.473 14.0085 18.001 13.5058 17.4232C13.7725 17.8136 14.0603 18.1931 14.4324 18.4913C13.8029 18.2781 12.962 16.966 12.7165 16.9125C13.8016 18.8554 17.1191 20.3198 18.8562 19.5933C18.0524 19.623 17.0313 19.6098 16.1282 19.276C15.7489 19.0808 15.233 18.6764 15.3252 18.6008C17.6959 19.4864 20.1448 19.2716 22.196 17.6272C22.7178 17.2208 23.2879 16.5294 23.4526 16.5198C23.2045 16.8929 23.495 16.6993 23.3044 17.0287C23.8244 16.1901 23.0785 16.6874 23.842 15.5805L24.1239 15.9689C24.0191 15.2728 24.9883 14.4275 24.89 13.3266C25.1123 12.9899 25.1381 13.6888 24.9021 14.4634C25.2295 13.6041 24.9883 13.466 25.0725 12.757C25.1634 12.9953 25.2827 13.2486 25.3438 13.5001C25.1306 12.6698 25.5628 12.1017 25.6697 11.6192C25.5643 11.5725 25.3405 11.9863 25.2894 11.0055C25.2969 10.5795 25.4079 10.7822 25.4507 10.6773C25.3671 10.6293 25.1476 10.3027 25.0141 9.67634C25.111 9.52918 25.2728 10.0579 25.4045 10.0796C25.3198 9.58159 25.174 9.2018 25.168 8.81968C24.7833 8.01569 25.032 8.92683 24.7198 8.47449C24.3103 7.19724 25.0596 8.17809 25.1102 7.59769C25.7309 8.49695 26.0848 9.89064 26.2472 10.4679C26.1233 9.76413 25.923 9.08226 25.6785 8.42259C25.8669 8.50186 25.3748 6.97443 25.9235 7.986C25.3374 5.82963 23.4152 3.81475 21.6469 2.86927C21.8632 3.0673 22.1364 3.31593 22.0383 3.35492C21.1589 2.83132 21.3136 2.79053 21.1876 2.56926C20.4711 2.27777 20.4241 2.59276 19.9496 2.56978C18.5993 1.85357 18.339 1.92973 17.0964 1.48101L17.1529 1.74513C16.2583 1.44719 16.1106 1.85822 15.1437 1.74616C15.0848 1.70021 15.4535 1.57989 15.7569 1.53574C14.892 1.64986 14.9325 1.36534 14.0862 1.56724C14.2948 1.42085 14.5153 1.32403 14.7378 1.19958C14.0325 1.24244 13.0539 1.6101 13.356 1.27575C12.2055 1.78902 10.1623 2.50962 9.01566 3.58471L8.97951 3.34382C8.4541 3.97457 6.68837 5.22754 6.54766 6.04444L6.4072 6.07723C6.13378 6.54016 5.95693 7.06479 5.74005 7.54115C5.38246 8.15046 5.21593 7.77558 5.2668 7.87111C4.5635 9.29707 4.21417 10.4953 3.91235 11.478C4.12742 11.7994 3.91752 13.4131 3.99885 14.7045C3.64565 21.0827 8.47527 27.2756 13.7544 28.7054C14.5282 28.9822 15.6789 28.9716 16.6577 29C15.5028 28.6698 15.3536 28.825 14.2287 28.4328C13.4172 28.0507 13.2393 27.6143 12.6646 27.1155L12.8921 27.5175C11.7648 27.1186 12.2365 27.0238 11.3194 26.7334L11.5624 26.4161C11.1971 26.3885 10.5947 25.8003 10.43 25.4747L10.0303 25.4905C9.5501 24.8979 9.29424 24.4709 9.31283 24.1402L9.18373 24.3702C9.03734 24.119 7.41697 22.148 8.25762 22.6068C8.10142 22.464 7.89384 22.3744 7.6687 21.9655L7.83988 21.7698C7.4353 21.2493 7.09527 20.5821 7.12109 20.3598C7.33693 20.6513 7.48668 20.7058 7.63488 20.7556C6.61324 18.2207 6.55592 20.6159 5.78214 18.1753L5.94583 18.1621C5.82035 17.9731 5.74418 17.7679 5.64323 17.5665L5.71449 16.8565C4.97892 16.006 5.50872 13.2403 5.61483 11.7235C5.68841 11.1067 6.2288 10.4501 6.63983 9.42048L6.38939 9.37736C6.86807 8.54239 9.12254 6.02405 10.1666 6.15366C10.6724 5.51826 10.0662 6.15133 9.96733 5.99126C11.0783 4.84155 11.4276 5.179 12.1774 4.9722C12.986 4.49223 11.4834 5.15938 11.8668 4.78914C13.2646 4.43207 12.8575 3.97741 14.681 3.79616C14.8734 3.90563 14.2346 3.96527 14.0743 4.10727C15.239 3.53746 17.7599 3.66707 19.3973 4.42355C21.2973 5.31145 23.432 7.93617 23.5161 10.4057L23.6119 10.4315C23.5634 11.4132 23.7622 12.5484 23.4178 13.5912L23.6522 13.0976Z" fill="#A80030"/>
<path d="M12.132 16.4302L12.0669 16.7556C12.3718 17.1697 12.6137 17.6184 13.0031 17.9422C12.7229 17.3953 12.5148 17.1694 12.132 16.4302Z" fill="#A80030"/>
<path d="M12.8528 16.4018C12.6914 16.2234 12.5959 16.0086 12.489 15.7946C12.5913 16.1707 12.8007 16.494 12.9956 16.8227L12.8528 16.4018Z" fill="#A80030"/>
<path d="M25.6082 13.6294L25.5401 13.8003C25.4151 14.688 25.1453 15.5663 24.7317 16.3806C25.1887 15.5214 25.4843 14.5816 25.6082 13.6294Z" fill="#A80030"/>
<path d="M15.5284 1.13865C15.8421 1.02375 16.2996 1.07565 16.6324 1C16.1986 1.0364 15.7669 1.05809 15.3407 1.11309L15.5284 1.13865Z" fill="#A80030"/>
<path d="M4.51546 6.99481C4.58776 7.66403 4.012 7.92376 4.64301 7.48253C4.98123 6.72062 4.51082 7.2721 4.51546 6.99481Z" fill="#A80030"/>
<path d="M3.77395 10.092C3.91931 9.64587 3.94565 9.37788 4.00116 9.11969C3.59942 9.63322 3.8163 9.74269 3.77395 10.092Z" fill="#A80030"/>
</svg>
