<svg width="30" height="30" viewBox="0 0 30 30" fill="none" xmlns="http://www.w3.org/2000/svg">
<path d="M8.43009 23.2718C8.25474 23.0103 8.10119 22.6577 7.97662 22.2358C5.72753 19.6994 7.46503 15.9668 9.18367 13.4322C9.34841 13.1612 9.52792 12.8993 9.72297 12.649C11.0342 11.0198 11.3735 9.88608 11.4743 8.3522C11.4863 8.06666 11.4627 7.68863 11.4355 7.25433C11.2968 5.03679 11.0663 1.3524 15.0229 1.02576C19.9685 0.617405 19.5657 5.15906 19.5291 7.82178C19.5276 7.93197 19.5262 8.03924 19.5251 8.1426C19.5116 9.74771 20.3494 10.8467 21.2237 11.9939C21.5431 12.4128 21.8673 12.8381 22.1567 13.2968C22.1653 13.3104 22.1738 13.324 22.1823 13.3377C23.7103 15.5413 25.2187 18.83 23.1191 21.9493C22.8241 23.0141 22.3772 23.9913 21.7807 24.7867C19.6392 27.6047 17.7358 27.3186 16.2493 27.0951C15.8009 27.0278 15.3905 26.9661 15.0229 26.997C14.4123 27.0342 13.9229 27.133 13.5002 27.2183C11.8661 27.5481 11.2275 27.677 8.43009 23.2718Z" fill="black"/>
<path d="M17.8196 3.51232C17.7737 4.81755 16.3891 5.95129 14.7295 6.05609C13.0698 6.16089 11.7678 5.17006 11.8136 3.86483C11.8594 2.5596 13.244 1.42586 14.9037 1.32106C16.5633 1.22578 17.8654 2.20709 17.8196 3.51232Z" fill="url(#paint0_linear_352_5569)"/>
<path fill-rule="evenodd" clip-rule="evenodd" d="M14.8119 6.68497C14.8252 7.39477 15.1503 7.99989 15.6068 8.27319C14.1174 8.13978 12.272 8.68431 12.272 9.71463C12.249 11.4577 11.2789 13.6264 10.5806 15.1874C10.4431 15.4948 10.3161 15.7788 10.2089 16.0312C9.77656 17.1017 9.51724 18.2465 9.48652 19.3694C8.34155 17.7912 9.17349 15.7666 9.62207 14.8879C10.219 13.7315 10.2075 13.5872 9.97562 13.8582C9.08692 15.3696 7.41316 18.4051 9.50903 20.2287C9.5756 21.043 9.77399 21.8321 10.1264 22.5573C12.9322 28.2165 18.1863 25.8919 19.9193 22.9575C20.1499 22.5403 20.3363 22.1366 20.4843 21.7466C20.5711 21.8013 20.664 21.8435 20.7629 21.8714C21.634 22.1286 22.936 21.1473 23.2478 20.5376C23.6237 19.7277 23.2386 19.1752 21.9549 18.5178C21.8895 18.4854 21.8248 18.4549 21.7609 18.4265C22.2533 16.3534 20.8966 14.1976 19.9276 13.283C19.7469 13.2385 19.7214 13.3409 20.0018 13.6208C20.6121 14.2055 21.9394 16.2907 21.2213 18.2313C21.103 18.1995 20.9892 18.1772 20.8807 18.1649C20.6601 16.8409 20.0719 15.8108 19.6608 15.091C19.5676 14.9279 19.4836 14.7808 19.415 14.6497C19.2766 14.3853 19.1111 14.1116 18.9356 13.8212C18.2594 12.7023 17.4344 11.3372 17.4344 9.31448C17.331 8.86944 16.9111 8.57271 16.352 8.40882C17.0008 8.27793 17.4879 7.51987 17.4711 6.60875C17.4527 5.62745 16.8384 4.84622 16.1048 4.86527C15.3713 4.88432 14.7844 5.70367 14.8119 6.68497ZM15.4171 6.9041C15.408 7.44715 15.6647 7.8854 16.004 7.8854C16.3341 7.8854 16.6183 7.44715 16.6275 6.91363C16.6367 6.37058 16.3799 5.93232 16.0406 5.93232C15.7014 5.93232 15.4263 6.37058 15.4171 6.9041Z" fill="url(#paint1_linear_352_5569)"/>
<path fill-rule="evenodd" clip-rule="evenodd" d="M12.9781 8.20932C13.5099 8.18074 13.895 7.4662 13.8492 6.61828C13.8033 5.77035 13.3357 5.11298 12.8039 5.14156C12.272 5.17014 11.8869 5.88468 11.9328 6.7326C11.9786 7.58053 12.4463 8.23791 12.9781 8.20932ZM13.299 6.91362C13.3449 7.3614 13.1798 7.74249 12.9414 7.7806C12.703 7.80918 12.4738 7.47573 12.4279 7.02795C12.3821 6.58017 12.5471 6.19908 12.7855 6.16097C13.0239 6.13239 13.2532 6.46584 13.299 6.91362Z" fill="url(#paint2_linear_352_5569)"/>
<path d="M15.5547 6.59919C15.5272 6.90406 15.6647 7.15177 15.8573 7.17082C16.0499 7.18988 16.2332 6.9517 16.2608 6.65635C16.2883 6.35148 16.1507 6.10377 15.9582 6.08472C15.7656 6.06566 15.5822 6.30384 15.5547 6.59919Z" fill="url(#paint3_linear_352_5569)"/>
<path d="M13.0973 6.67537C13.1248 6.92308 13.024 7.14221 12.8773 7.16126C12.7305 7.18032 12.593 6.98977 12.5655 6.73254C12.538 6.48483 12.6389 6.2657 12.7856 6.24665C12.9323 6.22759 13.0698 6.42767 13.0973 6.67537Z" fill="url(#paint4_linear_352_5569)"/>
<path d="M18.7365 16.6123C18.7365 18.2891 17.1869 20.4613 14.5277 20.4422C11.7861 20.4613 10.6216 18.2891 10.6216 16.6123C10.6216 14.9355 12.4371 13.5731 14.6744 13.5731C16.9209 13.5826 18.7365 14.9355 18.7365 16.6123Z" fill="url(#paint5_linear_352_5569)"/>
<path d="M17.2877 11.3438C17.2602 13.0777 16.1691 13.4874 14.7937 13.4874C13.4182 13.4874 12.4188 13.2301 12.2996 11.3438C12.2996 10.1624 13.4182 9.47642 14.7937 9.47642C16.1691 9.46689 17.2877 10.1528 17.2877 11.3438Z" fill="url(#paint6_linear_352_5569)"/>
<path d="M8.97108 14.0114C9.86968 12.5918 11.7677 10.4101 9.32869 14.3162C7.3481 17.5364 8.59514 19.6038 9.23699 20.1755C11.0892 21.8904 11.0159 23.0432 9.55792 22.1381C6.43116 20.2041 7.08219 16.9457 8.97108 14.0114Z" fill="url(#paint7_linear_352_5569)"/>
<path d="M21.9825 14.5925C21.2031 12.9253 18.7273 8.69518 22.1017 13.6112C25.1734 18.0604 23.0186 21.1568 22.6335 21.4617C22.2484 21.7665 20.9555 22.3858 21.3314 21.3092C21.7165 20.2327 23.6238 18.1938 21.9825 14.5925Z" fill="url(#paint8_linear_352_5569)"/>
<path d="M8.29254 27.7401C6.2386 26.6064 3.25854 27.9592 4.34053 24.8915C4.5606 24.196 4.0196 23.148 4.36804 22.4715C4.78066 21.6427 5.67009 21.8237 6.20192 21.2711C6.72457 20.6995 7.05467 19.7086 8.0358 19.8611C9.00775 20.0135 9.65878 21.2521 10.3373 22.7764C10.8416 23.8625 12.6205 25.3964 12.5013 26.6159C12.3546 28.4832 10.3098 28.8357 8.29254 27.7401Z" fill="url(#paint9_linear_352_5569)"/>
<path fill-rule="evenodd" clip-rule="evenodd" d="M6.42815 21.4944C5.92867 22.0406 5.01132 21.9097 4.64316 22.6245C4.40671 23.0835 4.66505 23.789 4.69991 24.2917C4.74297 24.9128 4.22811 25.7928 4.4903 26.3232C4.78477 26.9188 6.11503 26.8416 6.69982 26.927C8.14341 27.1379 10.5293 29.0062 11.8346 27.5152C13.1108 26.0576 10.6579 24.213 10.0563 22.9172C9.665 22.0382 9.07948 20.3528 7.98943 20.1817C7.22116 20.0624 6.87114 21.0099 6.42815 21.4944ZM8.08237 19.5405C9.43943 19.7533 10.1186 21.5127 10.6194 22.6378C11.3796 24.2693 13.9847 26.023 12.2963 27.9515C10.7628 29.703 8.34193 27.8217 6.61293 27.5691C5.74924 27.443 4.38707 27.5336 3.93517 26.6194C3.54662 25.8334 4.13175 25.1216 4.07744 24.3383C4.03116 23.6709 3.76702 22.9542 4.09186 22.3206C4.53656 21.43 5.39504 21.6457 5.97854 21.0446C6.59815 20.3638 6.96952 19.3676 8.08237 19.5405Z" fill="#E68C3F"/>
<path d="M22.5326 27.2161C24.0364 25.3202 27.3832 25.7108 25.1276 23.1099C24.6508 22.5478 24.7975 21.3474 24.2106 20.8329C23.5229 20.2041 22.7619 20.7186 22.065 20.3946C21.3681 20.0421 20.6346 19.3657 19.7818 19.842C18.929 20.3279 18.8374 21.5855 18.7548 23.2433C18.6815 24.4342 17.6362 26.4254 18.1955 27.521C19.0024 29.2168 21.1022 28.9882 22.5326 27.2161Z" fill="url(#paint10_linear_352_5569)"/>
<path fill-rule="evenodd" clip-rule="evenodd" d="M23.1334 20.1752C23.5189 20.1651 23.9807 20.1921 24.4144 20.5873C24.9538 21.0628 24.959 21.8391 25.1624 22.489C25.4033 23.2587 26.2472 23.6984 26.1967 24.6009C26.1142 26.0764 23.5591 26.4318 22.7726 27.4234C22.0169 28.3596 21.0616 28.9171 20.155 28.9922C18.7802 29.1062 17.6446 27.9501 17.7251 26.5386C17.7902 25.396 18.3724 24.3579 18.4433 23.2244C18.4841 22.4036 18.5283 21.6426 18.6767 21.0247C18.8266 20.4003 19.0968 19.8625 19.6317 19.5577C20.8035 18.9032 21.9354 20.2067 23.1334 20.1752ZM19.9307 20.127C19.6136 20.3082 19.4118 20.642 19.2823 21.1817C19.1511 21.7279 19.1079 22.4278 19.0663 23.2639C18.9963 24.4001 18.4131 25.4374 18.3481 26.577C18.2902 27.5932 19.0707 28.4315 20.1054 28.3458C20.8078 28.2875 21.6181 27.844 22.2926 27.0088C22.8954 26.2495 25.5188 25.5444 25.5736 24.5633C25.6094 23.9227 24.7667 23.3218 24.5689 22.6895C24.414 22.1947 24.4058 21.4282 24.0094 21.0807C23.756 20.8491 23.4895 20.8146 23.1491 20.8235C22.1626 20.8494 20.8465 19.6167 19.9307 20.127Z" fill="#E68C3F"/>
<path d="M21.8816 24.6819C24.2106 21.1091 22.4776 21.1377 21.8908 20.8614C21.3039 20.5756 20.6896 20.0135 20.0019 20.4041C19.3142 20.8043 19.2775 21.8332 19.2591 23.1861C19.2316 24.1579 18.4522 25.787 18.9199 26.6921C19.4884 27.7496 20.8638 26.2157 21.8816 24.6819Z" fill="url(#paint11_linear_352_5569)"/>
<path d="M7.81574 25.1963C4.33137 22.8526 5.96352 22.0524 6.48618 21.6808C7.11887 21.2044 7.12804 20.2898 7.90744 20.3756C8.68684 20.4613 9.14531 21.4617 9.66796 22.7002C10.0531 23.5862 11.3918 24.7676 11.2909 25.787C11.1626 26.9875 9.31952 26.1967 7.81574 25.1963Z" fill="url(#paint12_linear_352_5569)"/>
<path d="M23.0461 20.5089C22.771 21.0043 21.6524 21.7856 20.9096 21.576C20.1486 21.3759 19.8001 20.2612 19.956 19.4228C20.0936 18.4701 20.9096 18.4225 21.9366 18.8988C23.0278 19.4133 23.367 19.8516 23.0461 20.5089Z" fill="black"/>
<path d="M22.2942 20.2326C22.12 20.5756 21.3864 21.1186 20.873 20.9757C20.3595 20.8328 20.1027 20.0611 20.1853 19.48C20.2586 18.8226 20.8088 18.7845 21.5056 19.1084C22.2575 19.4704 22.4959 19.7753 22.2942 20.2326Z" fill="url(#paint13_linear_352_5569)"/>
<path d="M12.813 7.79965C13.1798 7.44714 14.0693 6.37056 15.7564 7.49478C16.0682 7.70438 16.3249 7.72343 16.9209 7.99019C18.1221 8.50466 17.5536 9.7432 16.2699 10.1624C15.7197 10.3434 15.2246 11.0389 14.2343 10.9722C13.3816 10.9246 13.1615 10.3434 12.6388 10.029C11.7127 9.48597 11.5752 8.75237 12.0795 8.36175C12.5838 7.97114 12.7764 7.82823 12.813 7.79965Z" fill="url(#paint14_linear_352_5569)"/>
<path fill-rule="evenodd" clip-rule="evenodd" d="M12.1914 8.51772C11.9997 8.66623 11.9386 8.86371 12.002 9.08206C12.1322 9.53055 13.071 10.1475 13.4305 10.4494C13.6349 10.621 13.8686 10.757 14.2464 10.7781C15.0556 10.8326 15.5049 10.2101 16.2138 9.97682C16.68 9.82457 17.6664 9.24274 17.3397 8.57596C17.0609 8.007 16.1216 7.97183 15.655 7.65831C14.852 7.12332 14.2674 7.12713 13.851 7.27723C13.3947 7.44169 12.6048 8.19757 12.1914 8.51772ZM13.7282 6.90966C14.2699 6.71442 14.9742 6.74246 15.8582 7.33145C16.439 7.722 17.3229 7.68433 17.6734 8.39943C18.1198 9.31042 17.0381 10.1154 16.3263 10.3479C15.564 10.5989 15.1382 11.2276 14.2232 11.1664C13.7489 11.1397 13.4444 10.9613 13.1951 10.752C12.6779 10.3177 11.804 9.90504 11.6042 9.21647C11.4933 8.83461 11.655 8.4479 11.9676 8.2058C12.4729 7.81444 13.1556 7.11607 13.7282 6.90966Z" fill="#E68C3F"/>
<path fill-rule="evenodd" clip-rule="evenodd" d="M17.0639 8.79292C17.0677 8.86443 17.0149 8.92557 16.9461 8.92947C15.9756 8.98448 15.2937 10.092 14.1976 10.092C13.5844 10.092 13.0989 9.7961 12.7518 9.51153C12.6818 9.45418 12.0647 8.97836 12.0647 8.85714C12.0647 8.78552 12.1206 8.72746 12.1895 8.72746C12.3185 8.72746 12.7076 9.14964 12.8523 9.26832C13.1792 9.53633 13.6647 9.83261 14.1976 9.83261C15.2826 9.83261 15.9483 8.72626 16.9325 8.67048C17.0013 8.66658 17.0602 8.7214 17.0639 8.79292Z" fill="#E68C3F"/>
<path d="M13.3816 7.70433C13.5649 7.53284 14.1426 7.06601 14.9037 7.54237C15.0687 7.63764 15.2338 7.74244 15.4722 7.88535C15.9582 8.18069 15.7198 8.60942 15.1329 8.87618C14.867 8.99051 14.4269 9.23822 14.0968 9.21916C13.73 9.18105 13.4824 8.93335 13.244 8.77138C12.7947 8.46651 12.8222 8.20928 13.0331 8.0092C13.189 7.85677 13.3632 7.71386 13.3816 7.70433Z" fill="url(#paint15_linear_352_5569)"/>
<defs>
<linearGradient id="paint0_linear_352_5569" x1="15.0813" y1="1.42884" x2="14.7714" y2="5.62817" gradientUnits="userSpaceOnUse">
<stop stop-color="white" stop-opacity="0.8"/>
<stop offset="1" stop-color="white" stop-opacity="0"/>
</linearGradient>
<linearGradient id="paint1_linear_352_5569" x1="10.6557" y1="24.339" x2="8.35152" y2="16.7789" gradientUnits="userSpaceOnUse">
<stop stop-color="#FFEED7"/>
<stop offset="1" stop-color="#BDBFC2"/>
</linearGradient>
<linearGradient id="paint2_linear_352_5569" x1="10.6557" y1="24.339" x2="8.35152" y2="16.7789" gradientUnits="userSpaceOnUse">
<stop stop-color="#FFEED7"/>
<stop offset="1" stop-color="#BDBFC2"/>
</linearGradient>
<linearGradient id="paint3_linear_352_5569" x1="15.9356" y1="6.1174" x2="15.8049" y2="7.09557" gradientUnits="userSpaceOnUse">
<stop stop-color="white" stop-opacity="0.65"/>
<stop offset="1" stop-color="white" stop-opacity="0"/>
</linearGradient>
<linearGradient id="paint4_linear_352_5569" x1="12.8076" y1="6.2956" x2="12.9481" y2="7.08708" gradientUnits="userSpaceOnUse">
<stop stop-color="white" stop-opacity="0.65"/>
<stop offset="1" stop-color="white" stop-opacity="0"/>
</linearGradient>
<linearGradient id="paint5_linear_352_5569" x1="14.6661" y1="14.4819" x2="14.6894" y2="20.0765" gradientUnits="userSpaceOnUse">
<stop stop-color="white" stop-opacity="0.8"/>
<stop offset="1" stop-color="white" stop-opacity="0"/>
</linearGradient>
<linearGradient id="paint6_linear_352_5569" x1="14.79" y1="10.9735" x2="14.8158" y2="13.198" gradientUnits="userSpaceOnUse">
<stop stop-color="white" stop-opacity="0.65"/>
<stop offset="1" stop-color="white" stop-opacity="0"/>
</linearGradient>
<linearGradient id="paint7_linear_352_5569" x1="9.00798" y1="12.3465" x2="9.00798" y2="20.5101" gradientUnits="userSpaceOnUse">
<stop stop-color="white" stop-opacity="0.65"/>
<stop offset="1" stop-color="white" stop-opacity="0"/>
</linearGradient>
<linearGradient id="paint8_linear_352_5569" x1="22.0453" y1="11.5492" x2="22.0422" y2="18.9254" gradientUnits="userSpaceOnUse">
<stop stop-color="white" stop-opacity="0.65"/>
<stop offset="1" stop-color="white" stop-opacity="0"/>
</linearGradient>
<linearGradient id="paint9_linear_352_5569" x1="8.60003" y1="24.01" x2="7.34974" y2="28.1871" gradientUnits="userSpaceOnUse">
<stop stop-color="#FFA63F"/>
<stop offset="1" stop-color="#FFFF00"/>
</linearGradient>
<linearGradient id="paint10_linear_352_5569" x1="20.4336" y1="22.7396" x2="23.7704" y2="27.2893" gradientUnits="userSpaceOnUse">
<stop stop-color="#FFA63F"/>
<stop offset="1" stop-color="#FFFF00"/>
</linearGradient>
<linearGradient id="paint11_linear_352_5569" x1="21.3276" y1="19.1047" x2="20.1608" y2="24.6022" gradientUnits="userSpaceOnUse">
<stop stop-color="white" stop-opacity="0.65"/>
<stop offset="1" stop-color="white" stop-opacity="0"/>
</linearGradient>
<linearGradient id="paint12_linear_352_5569" x1="8.34523" y1="20.4642" x2="8.57657" y2="26.6511" gradientUnits="userSpaceOnUse">
<stop stop-color="white" stop-opacity="0.65"/>
<stop offset="1" stop-color="white" stop-opacity="0"/>
</linearGradient>
<linearGradient id="paint13_linear_352_5569" x1="21.1249" y1="19.0046" x2="21.3956" y2="20.8532" gradientUnits="userSpaceOnUse">
<stop stop-color="white" stop-opacity="0.65"/>
<stop offset="1" stop-color="white" stop-opacity="0"/>
</linearGradient>
<linearGradient id="paint14_linear_352_5569" x1="14.6706" y1="7.69664" x2="14.6932" y2="10.9524" gradientUnits="userSpaceOnUse">
<stop stop-color="#FFA63F"/>
<stop offset="1" stop-color="#FFFF00"/>
</linearGradient>
<linearGradient id="paint15_linear_352_5569" x1="14.3145" y1="7.38874" x2="14.3084" y2="9.11029" gradientUnits="userSpaceOnUse">
<stop stop-color="white" stop-opacity="0.65"/>
<stop offset="1" stop-color="white" stop-opacity="0"/>
</linearGradient>
</defs>
</svg>
