<svg width="30" height="30" viewBox="0 0 30 30" fill="none" xmlns="http://www.w3.org/2000/svg">
<rect x="1" y="1" width="28" height="28" rx="14" fill="black"/>
<path d="M15 1C11.287 1 7.72601 2.475 5.1005 5.1005C2.475 7.72601 1 11.287 1 15C1 18.713 2.475 22.274 5.1005 24.8995C7.72601 27.525 11.287 29 15 29C18.713 29 22.274 27.525 24.8995 24.8995C27.525 22.274 29 18.713 29 15C29 11.287 27.525 7.72601 24.8995 5.1005C22.274 2.475 18.713 1 15 1ZM22.3115 4.248L16.2017 7.46333L25.5933 7.2545L16.2017 11.143L13.6887 14.279L19.5302 24.8233L17.7382 22.9508L19.6573 26.9828L13.8975 20.5347L6.58483 13.208L4.23167 15.1283L5.04833 11.1127L9.736 10.8082L10.6962 6.0715L22.3115 4.248Z" fill="#15E0ED"/>
</svg>
